HIERARCHY
ROOT hip
{
	OFFSET 0.00000 0.00000 0.00000
	CHANNELS 6 Xposition Yposition Zposition Zrotation Yrotation Xrotation 
	JOINT rightuplegdummy
	{
		OFFSET 0 0 0
		CHANNELS 3 Zrotation Yrotation Xrotation
		JOINT rightupleg
		{
			OFFSET -3.52197 -3.41223 0.04002
			CHANNELS 3 Zrotation Yrotation Xrotation
			JOINT rightleg
			{
				OFFSET 0.00006 -17.42390 1.60435
				CHANNELS 3 Zrotation Yrotation Xrotation
				JOINT rightfoot
				{
					OFFSET 0.06153 -16.50078 -1.63901
					CHANNELS 3 Zrotation Yrotation Xrotation
					JOINT righttoes
					{
						OFFSET 0.00298 -1.73825 3.34613
						CHANNELS 3 Zrotation Yrotation Xrotation
						End Site
						{
							OFFSET 0.00480 -0.05416 3.85043
						}
					}
				}
			}
		}
	}
	JOINT spinedummy
	{
		OFFSET 0 0 0
		CHANNELS 3 Zrotation Yrotation Xrotation
		JOINT spine
		{
			OFFSET 0.00000 4.68130 0.00000
			CHANNELS 3 Zrotation Yrotation Xrotation
			JOINT spine1
			{
				OFFSET -0.00000 10.10138 0.05002
				CHANNELS 3 Zrotation Yrotation Xrotation
				JOINT headdummy
				{
					OFFSET 0 0 0
					CHANNELS 3 Zrotation Yrotation Xrotation
					JOINT head
					{
						OFFSET -0.00000 3.43865 0.00438
						CHANNELS 3 Zrotation Yrotation Xrotation
						End Site
						{
							OFFSET -0.11417 5.02924 0.98962
						}
					}
				}
				JOINT leftshoulder1dummy
				{
					OFFSET 0 0 0
					CHANNELS 3 Zrotation Yrotation Xrotation
					JOINT leftshoulder1
					{
						OFFSET 3.53937 -0.14262 -0.08662
						CHANNELS 3 Zrotation Yrotation Xrotation
						JOINT leftarm
						{
							OFFSET 4.04833 -0.00133 0.12681
							CHANNELS 3 Zrotation Yrotation Xrotation
							JOINT leftforearm
							{
								OFFSET 10.33880 -0.01036 -0.55515
								CHANNELS 3 Zrotation Yrotation Xrotation
								JOINT lefthand
								{
									OFFSET 8.69677 0.07543 0.40060
									CHANNELS 3 Zrotation Yrotation Xrotation
									End Site
									{
										OFFSET 5.28377 -0.21905 0.59205
									}
								}
							}
						}
					}
				}
				JOINT rightshoulderdummy
				{
					OFFSET 0 0 0
					CHANNELS 3 Zrotation Yrotation Xrotation
					JOINT rightshoulder
					{
						OFFSET -3.53937 -0.14262 -0.08660
						CHANNELS 3 Zrotation Yrotation Xrotation
						JOINT rightarm
						{
							OFFSET -4.04833 -0.00133 0.12683
							CHANNELS 3 Zrotation Yrotation Xrotation
							JOINT rightforearm
							{
								OFFSET -10.37987 -0.01039 -0.55511
								CHANNELS 3 Zrotation Yrotation Xrotation
								JOINT righthand
								{
									OFFSET -8.67398 0.07538 0.40058
									CHANNELS 3 Zrotation Yrotation Xrotation
									End Site
									{
										OFFSET -5.24810 -0.21916 0.59204
									}
								}
							}
						}
					}
				}
			}
		}
	}
	JOINT leftuplegdummy
	{
		OFFSET 0 0 0
		CHANNELS 3 Zrotation Yrotation Xrotation
		JOINT leftupleg
		{
			OFFSET 3.52197 -3.41223 0.04002
			CHANNELS 3 Zrotation Yrotation Xrotation
			JOINT leftleg
			{
				OFFSET -0.00012 -17.42399 1.60337
				CHANNELS 3 Zrotation Yrotation Xrotation
				JOINT leftfoot
				{
					OFFSET -0.09972 -16.50070 -1.63802
					CHANNELS 3 Zrotation Yrotation Xrotation
					JOINT lefttoes
					{
						OFFSET -0.01575 -1.73823 3.34611
						CHANNELS 3 Zrotation Yrotation Xrotation
						End Site
						{
							OFFSET 0.03150 -0.01868 3.85031
						}
					}
				}
			}
		}
	}
}
MOTION
Frames: 11
Frame Time: 0.033333
12.7989 38.0384 14.0801 -5.0167 42.8063 0.6117 0.0000 -0.0000 0.0000 -17.9456 3.6717 -20.1461 -2.2695 -4.3418 19.8690 14.5228 -2.3425 7.1033 0.0000 0.0000 0.0000 0.0000 -0.0000 0.0000 -3.5359 -1.4117 2.9597 6.6209 -3.0233 6.7963 -0.0000 -0.0000 -0.0000 9.4713 -17.0924 -36.8000 -0.0000 -0.0000 -0.0000 -36.8577 -12.7893 6.9932 -29.1518 -13.5082 8.9253 173.9883 -81.5934 -145.8450 7.4491 -2.7718 -0.5000 -0.0000 -0.0000 -0.0000 33.2674 6.5285 3.9390 39.0687 -8.9066 6.0006 -15.0278 87.2920 9.5672 -3.9961 8.3497 -0.4017 0.0000 -0.0000 0.0000 6.5584 -11.7836 -6.5337 7.2238 9.0446 31.7615 -13.2984 -1.2725 -23.4304 0.0000 0.0000 0.0000
12.8822 38.5684 13.5585 -6.4005 39.5571 0.7573 0.0000 -0.0000 0.0000 -15.1854 1.7290 -21.5716 -2.2573 -4.5165 16.8214 11.2843 -2.2774 11.8503 0.0000 0.0000 0.0000 0.0000 -0.0000 0.0000 -3.7663 -1.5889 3.4141 8.3470 -3.5592 6.1973 -0.0000 -0.0000 -0.0000 9.2023 -13.5044 -37.8592 -0.0000 -0.0000 -0.0000 -37.7233 -13.0158 7.2385 -34.8117 -1.5424 6.6692 176.1088 -79.6632 -151.8482 9.1215 -1.6581 -0.5382 -0.0000 -0.0000 -0.0000 33.7693 6.6127 4.0232 40.9331 -10.1937 6.5858 -20.9675 88.2484 1.9927 -3.5684 8.3228 -0.3508 0.0000 -0.0000 0.0000 7.1989 -8.8525 -6.0204 6.7210 9.5439 28.2666 -12.9236 -0.9878 -21.1624 0.0000 0.0000 0.0000
12.9302 39.1338 13.2959 -6.6691 38.1703 2.3272 0.0000 -0.0000 0.0000 -11.8852 -3.3399 -21.7654 -2.2975 -3.5943 13.7080 9.7133 -2.0293 12.7420 0.0000 0.0000 0.0000 0.0000 -0.0000 0.0000 -5.3131 -2.4777 1.9418 9.9055 -4.7461 5.9640 -0.0000 -0.0000 -0.0000 9.3737 -10.8689 -36.3776 -0.0000 -0.0000 -0.0000 -38.4064 -13.1942 7.4353 -39.3777 9.7705 4.0267 176.9250 -78.8725 -154.9722 10.6208 -1.2368 -0.5942 -0.0000 -0.0000 -0.0000 34.4021 6.6791 4.1147 42.4142 -12.7177 7.5444 -49.7740 89.0777 -25.1496 -2.9195 9.1941 -0.2885 0.0000 -0.0000 0.0000 7.2433 -8.4328 -5.1190 6.2957 11.3770 22.3213 -12.1605 -0.6135 -18.1147 0.0000 0.0000 0.0000
12.9115 39.5006 13.2195 -6.5057 36.9599 4.1886 0.0000 -0.0000 0.0000 -10.2718 -4.6472 -21.7979 -2.1553 -4.0599 13.4239 11.7820 -2.3376 11.4781 0.0000 0.0000 0.0000 0.0000 -0.0000 0.0000 -6.2644 -3.0124 -0.2207 9.9277 -5.1418 5.6482 -0.0000 -0.0000 -0.0000 9.7360 -9.8043 -33.6944 -0.0000 -0.0000 -0.0000 -38.4972 -13.2395 7.4714 -42.4711 18.5451 1.5764 176.8715 -79.6930 -155.5658 9.3938 -1.5170 -0.5444 -0.0000 -0.0000 -0.0000 34.8384 6.7555 4.1910 43.5319 -16.1710 7.6544 -92.1569 89.2378 -66.2942 -1.8883 9.5915 -0.1624 0.0000 -0.0000 0.0000 6.8912 -7.3227 -4.4103 5.9473 12.0607 17.0234 -11.7188 -0.3349 -15.5087 0.0000 0.0000 0.0000
12.7863 39.5221 13.1966 -5.6967 35.5124 5.5076 0.0000 -0.0000 0.0000 -10.2145 -2.9566 -20.9503 -2.0852 -4.4459 15.1023 13.1370 -2.2481 8.2971 0.0000 0.0000 0.0000 0.0000 -0.0000 0.0000 -6.6489 -2.9213 -1.4306 8.2576 -4.5840 5.4134 -0.0000 -0.0000 -0.0000 10.1435 -9.5675 -31.6921 -0.0000 -0.0000 -0.0000 -37.8399 -13.0962 7.2939 -43.2726 24.0969 0.6403 176.6414 -80.5240 -155.5100 8.1960 -1.7703 -0.4890 -0.0000 -0.0000 -0.0000 34.8364 6.7891 4.2044 44.0543 -18.8069 7.9096 -78.8417 89.2471 -53.4717 -1.1824 9.4697 -0.0697 0.0000 -0.0000 0.0000 5.8953 -3.3985 -3.7999 5.5167 9.7609 14.0898 -11.2663 -0.2877 -15.1769 0.0000 0.0000 0.0000
12.6211 39.3123 13.0844 -4.1976 34.8530 6.4000 0.0000 -0.0000 0.0000 -10.6927 -2.6322 -19.0690 -2.2755 -4.8495 14.5548 11.2789 -1.5559 4.4874 0.0000 0.0000 0.0000 0.0000 -0.0000 0.0000 -6.6516 -2.6775 -1.4926 5.9617 -3.8307 5.4312 -0.0000 -0.0000 -0.0000 10.3200 -9.9090 -31.0214 -0.0000 -0.0000 -0.0000 -36.7760 -12.8637 7.0115 -41.8850 26.5468 1.5761 176.6431 -80.5447 -155.5445 8.2864 -1.8537 -0.4998 -0.0000 -0.0000 -0.0000 34.2473 6.7225 4.1162 44.0333 -19.9267 8.7403 -43.4310 88.9578 -18.5300 -2.4234 9.2255 -0.2263 0.0000 -0.0000 0.0000 4.5920 -2.4723 -3.6125 5.3506 9.3406 13.5332 -10.6866 -0.3771 -16.4222 0.0000 0.0000 0.0000
12.4916 39.1103 12.8844 -2.7925 34.6329 7.0200 0.0000 -0.0000 0.0000 -10.9153 -4.1343 -17.7741 -2.7129 -4.7818 11.9668 9.0749 -1.1157 2.8048 0.0000 0.0000 0.0000 0.0000 -0.0000 0.0000 -5.9804 -2.1908 -1.4092 4.0791 -2.9399 6.0126 -0.0000 -0.0000 -0.0000 10.0212 -10.9334 -31.9573 -0.0000 -0.0000 -0.0000 -36.7621 -12.8772 7.0152 -38.1995 25.6062 3.3602 176.4515 -81.1507 -155.4038 8.5872 -2.1490 -0.5382 -0.0000 -0.0000 -0.0000 33.7242 6.6262 4.0239 42.6174 -19.4412 9.7429 -21.9109 88.0962 2.9133 -2.3037 8.9390 -0.2077 0.0000 -0.0000 0.0000 3.3531 -4.3739 -4.0359 5.7799 11.1840 14.4489 -10.3152 -0.4516 -17.4995 0.0000 0.0000 0.0000
12.3817 38.9955 12.6708 -2.2126 33.2593 7.1963 0.0000 -0.0000 0.0000 -11.2959 -3.3074 -18.4358 -3.0017 -4.5458 11.6492 8.4490 -1.0561 3.0359 0.0000 0.0000 0.0000 0.0000 -0.0000 0.0000 -3.9802 -1.1699 -1.2459 1.7119 -1.4032 6.5299 -0.0000 -0.0000 -0.0000 9.5649 -11.9514 -33.5982 -0.0000 -0.0000 -0.0000 -38.2747 -13.2179 7.4237 -33.3472 21.8308 4.6333 175.0633 -83.3476 -153.2652 8.9632 -2.1913 -0.5656 -0.0000 -0.0000 -0.0000 33.8330 6.6061 4.0270 39.7976 -17.3546 10.4587 -11.4693 86.1578 14.7202 -3.1092 9.1508 -0.3129 0.0000 -0.0000 0.0000 2.7377 -5.5290 -4.8472 6.4973 13.5704 16.3667 -10.3171 -0.5014 -18.0881 0.0000 0.0000 0.0000
12.2801 38.9752 12.5208 -2.4205 30.8841 6.7998 0.0000 -0.0000 0.0000 -11.7384 -0.7576 -19.8104 -2.6851 -4.4672 13.1630 8.7102 -1.1295 3.5807 0.0000 0.0000 0.0000 0.0000 -0.0000 0.0000 -1.1355 -0.2728 0.0232 -1.2587 0.1110 5.4455 -0.0000 -0.0000 -0.0000 9.0272 -11.7260 -33.7628 -0.0000 -0.0000 -0.0000 -39.3981 -13.4696 7.7343 -30.9876 17.6852 4.0922 172.4531 -85.0482 -149.1331 9.5027 -1.5000 -0.5495 -0.0000 -0.0000 -0.0000 33.5851 6.6030 4.0005 37.8241 -14.7802 11.1438 -8.6003 84.3770 19.1660 -3.9788 9.2118 -0.4224 0.0000 -0.0000 0.0000 2.6708 -4.4108 -4.9615 6.9972 14.6141 17.4980 -10.6346 -0.5264 -18.1579 0.0000 0.0000 0.0000
12.1670 39.0601 12.5079 -2.6546 29.7743 6.2599 0.0000 -0.0000 0.0000 -11.5107 -0.8309 -20.0459 -1.8699 -2.7625 13.4205 9.3051 -1.2311 3.8766 0.0000 0.0000 0.0000 0.0000 -0.0000 0.0000 -0.1187 -0.4124 1.5599 -1.8030 0.0387 3.6897 -0.0000 -0.0000 -0.0000 8.0781 -10.0033 -32.3584 -0.0000 -0.0000 -0.0000 -39.2201 -13.4478 7.6927 -31.9381 14.3952 2.1821 173.2945 -84.5788 -150.3530 10.4601 -0.8304 -0.5513 -0.0000 -0.0000 -0.0000 32.5418 6.5440 3.8720 37.3119 -12.4740 12.3960 -8.7222 84.8896 17.5658 -3.7213 9.0097 -0.3852 0.0000 -0.0000 0.0000 2.8544 -3.0104 -4.0444 6.7658 14.1076 16.5675 -11.0147 -0.4928 -17.5371 0.0000 0.0000 0.0000
11.9751 39.1752 12.6876 -2.3077 30.6807 6.3593 0.0000 -0.0000 0.0000 -12.0598 -0.6016 -19.7811 -1.2781 -1.5668 14.0783 9.6829 -1.1782 2.6109 0.0000 0.0000 0.0000 0.0000 -0.0000 0.0000 -1.8922 -1.3571 1.6575 0.6976 -1.4603 3.1700 -0.0000 -0.0000 -0.0000 7.0270 -7.9492 -31.1082 -0.0000 -0.0000 -0.0000 -38.7484 -13.3933 7.5845 -32.9019 10.7762 0.8499 175.7112 -83.1753 -155.4705 11.9865 -0.5037 -0.6021 -0.0000 -0.0000 -0.0000 32.0594 6.5124 3.8115 36.6799 -10.3868 13.2247 -13.8100 87.1855 10.1961 -2.2964 8.6293 -0.2030 0.0000 -0.0000 0.0000 3.0743 -1.7336 -3.1767 5.8456 12.0111 14.5258 -11.4193 -0.4259 -16.5923 0.0000 0.0000 0.0000
